<?xml version="1.0" encoding="UTF-8" standalone="no"?>
<!-- Created with Inkscape (http://www.inkscape.org/) -->

<svg
   width="120"
   height="120"
   viewBox="0 0 120 120"
   version="1.1"
   id="svg1"
   xmlns="http://www.w3.org/2000/svg"
   xmlns:svg="http://www.w3.org/2000/svg">
  <defs
     id="defs1" />
  <g
     id="layer7">
    <path
       id="rect52"
       style="fill:#99c1f1;stroke:none"
       d="M 36.875,13.441406 V 37.5625 H 54.5 V 20.255859 Z" />
    <path
       id="rect52-2"
       style="fill:#99c1f1;stroke:none"
       d="m -82.869141,13.439453 17.625,6.814453 v 17.306641 h -17.625 z"
       transform="scale(-1,1)" />
  </g>
  <g
     id="layer1"
     transform="translate(5.3033008,14.849242)">
    <rect
       style="fill:#b5835a;stroke:none"
       id="rect4"
       width="83.260872"
       height="43.913044"
       x="12.391304"
       y="35.217392" />
    <rect
       style="fill:#865e3c;stroke:none;stroke-width:0.667965"
       id="rect8"
       width="46.000118"
       height="46.000118"
       x="48.242546"
       y="-11.450347"
       transform="matrix(0.90498397,0.42544566,-0.90498397,0.42544566,0,0)" />
  </g>
  <g
     id="layer2">
    <path
       id="path10"
       style="fill:#99c1f1;stroke:none"
       d="M 59.6875,19.625 A 27.1875,27.1875 0 0 0 32.5,46.8125 27.1875,27.1875 0 0 0 55.582031,73.566406 c 0.03383,-0.12785 0.072,-0.253868 0.125,-0.375 0.05007,-0.114438 0.157579,-0.225248 0.291016,-0.332031 -0.015,0.0012 -0.02992,0.0027 -0.04492,0.0039 -2.467374,0.192527 -2.662711,-2.299963 -0.195313,-2.492187 1.064813,-0.08295 2.132385,-0.173956 3.201172,-0.208985 5.69e-4,-0.03211 0.0019,-0.06368 0,-0.09766 -0.01227,-0.218408 0.09273,-0.338591 0.203125,-0.349609 0.03673,-0.0036 0.07349,0.0043 0.107422,0.02539 v -0.002 c -0.0011,-0.0039 -0.0011,-0.0084 0,-0.01172 6.54e-4,-0.0019 0.003,-0.0025 0.0039,-0.0039 v -0.002 c -0.0039,-0.0085 -0.0039,-0.0097 0.002,-0.01172 0.0013,-4.5e-4 0.002,-0.0014 0.0039,-0.002 v -0.002 c 0.0015,-0.0075 0.0065,-0.01468 0.0098,-0.02148 0.0019,-0.0012 0.0039,-0.0011 0.0059,-0.002 l 0.002,-0.002 c 0.0013,-0.0026 0.0025,-0.0052 0.0039,-0.0078 2.8e-5,-0.0051 0.0013,-0.01282 0.0059,-0.02344 7.72e-4,-0.0018 0.0027,-0.0017 0.0059,-0.002 0.0033,-2.14e-4 0.0074,-5.14e-4 0.01172,0 0.0021,-8.12e-4 0.0032,-0.0038 0.0059,-0.0039 0.0033,-1.65e-4 0.0073,-10e-4 0.01172,0 0.0037,8e-4 0.0066,0.004 0.0098,0.0059 0.0018,0.0015 0.0023,0.0042 0.0039,0.0059 0.01334,0.0045 0.02603,0.01106 0.0332,0.02344 0.0025,0.0045 0.0056,0.0085 0.0059,0.01367 9.3e-5,0.002 -0.0016,0.0039 -0.002,0.0059 0.02286,0.0027 0.0354,0.0079 0.01367,0.03906 -4.13e-4,6e-4 -0.0017,0.0015 -0.0039,0.002 l 0.002,0.002 c 1e-4,0.0023 -1.41e-4,0.0054 0,0.0078 v 0.002 c 0.0028,0.0086 0.0077,0.01636 0.0098,0.02539 5.63e-4,0.0027 -4.67e-4,0.0052 0,0.0078 0.007,0.0037 0.01805,0.0089 0.01953,0.01172 0.004,0.0076 0.0057,0.01709 0.0078,0.02539 0.0057,0.0028 0.01105,0.0065 0.01172,0.01172 4.07e-4,0.0032 -4.9e-5,0.0052 0,0.0078 0.03489,0.01359 0.06878,0.02858 0.107422,0.03125 0.09175,0.02063 0.192893,-0.0281 0.283203,-0.0332 0.247761,-0.03963 0.46589,-0.04758 0.675781,0.115234 0.07513,0.0654 0.139219,0.142035 0.208985,0.212891 0.23887,0.01026 0.47784,0.02518 0.716796,0.04492 0.433905,0.09956 0.733699,0.140708 1.029297,0.242187 0.104986,-0.02086 0.210598,-0.04545 0.306641,-0.03516 0.02336,-0.0062 0.04598,-0.01135 0.06641,-0.01172 0.04368,-7.81e-4 0.07906,0.01341 0.103516,0.05078 0.02911,0.04448 0.04506,0.101901 0.05078,0.16211 2.61e-4,0.0027 0.0017,0.0051 0.002,0.0078 0.0066,0.02889 0.0053,0.05969 0.0059,0.08984 0.05306,0.03423 0.105024,0.06785 0.162109,0.109375 0.869746,0.632713 1.091546,1.424313 0.666016,2.367187 0.05396,0.05625 0.109543,0.110478 0.162109,0.167969 0.2972,8.02e-4 0.564459,0.01865 0.757812,0.08789 A 27.1875,27.1875 0 0 0 86.875,46.8125 27.1875,27.1875 0 0 0 59.6875,19.625 Z" />
    <path
       id="rect11"
       style="fill:#99c1f1;stroke:none;stroke-width:0.998092"
       d="m 32.496094,46.578125 v 28.759766 c 0.56695,-0.0386 1.104727,-0.07861 1.685547,-0.0625 0.06576,0.0018 0.136822,-0.0064 0.205078,-0.0059 0.06826,5.18e-4 0.133797,0.01083 0.1875,0.04883 0.09226,0.06528 0.185815,0.138864 0.271484,0.21875 -6.14e-4,-0.01039 -7.18e-4,-0.02095 -0.002,-0.03125 0.853284,0.119726 2.268837,0.02907 1.570312,1.355469 0.376104,0.02226 0.751687,0.04076 1.128907,0.06445 0.185089,-0.0037 0.21688,-0.0025 0.457031,-0.0078 0.234446,-0.0051 0.468715,-0.01484 0.703125,-0.02148 0.488582,-0.359302 1.095457,-0.288935 1.851563,-0.304687 0.43764,-0.0091 0.874786,0.009 1.3125,0.01367 0.158723,0.01614 0.416815,-0.05769 0.58789,-0.05273 0.102645,0.003 0.173456,0.03513 0.173828,0.13086 9.25e-4,0.238046 -0.02589,0.435029 -0.07227,0.601562 0.330742,0.02983 0.656173,0.06104 0.935547,0.0918 0.499904,0.05503 0.996013,0.137721 1.49414,0.207031 0.158623,0.06776 0.503594,0.07695 0.613281,0.160157 0.284382,0.02549 0.569096,0.05111 0.853516,0.07617 1.102924,0.09717 2.207077,0.173158 3.308594,0.285157 0.827979,0.08419 1.78387,-0.153687 2.478515,0.304687 0.188295,0.12425 0.276058,0.406446 0.269532,0.683594 h 15.757812 c -0.294222,-0.02417 -0.573565,-0.04891 -0.822266,-0.07617 -0.879881,-0.09645 -1.74469,-0.298119 -2.617187,-0.447266 -0.445296,-0.253595 -1.226087,-0.261186 -1.335937,-0.761718 -0.169364,-0.771696 -0.160568,-1.336153 -0.02539,-1.763672 -0.224116,-0.02931 -0.471462,-0.107809 -0.679688,-0.105469 -0.04689,5.25e-4 -0.09374,0.0014 -0.140625,0.002 -0.110584,0.0062 -0.221104,0.01285 -0.332031,0.01758 -1.687079,0.07192 -3.376723,0.07758 -5.064453,0.126954 -0.267113,0.0038 -0.502332,0.03301 -0.759766,-0.04492 -0.04029,-0.01219 -0.0713,-0.04496 -0.101562,-0.07422 -0.09409,-0.09096 -0.140213,-0.203961 -0.132813,-0.333985 0.0071,-0.05336 0.02057,-0.105466 0.03125,-0.158203 -0.03123,-0.03212 -0.05586,-0.06802 -0.07031,-0.109375 -0.327204,-0.288428 -0.534807,-0.702886 -0.810547,-1.044922 0.100095,-0.376322 0.144677,-0.772157 0.300781,-1.128906 0.05007,-0.114438 0.157579,-0.225248 0.291016,-0.332031 -0.015,0.0012 -0.02992,0.0027 -0.04492,0.0039 -2.467374,0.192527 -2.66271,-2.299963 -0.195313,-2.492187 1.064814,-0.08295 2.132385,-0.173956 3.201172,-0.208985 5.69e-4,-0.03211 0.0019,-0.06368 0,-0.09766 -0.01227,-0.218408 0.09273,-0.338591 0.203125,-0.349609 0.03673,-0.0036 0.07349,0.0043 0.107422,0.02539 v -0.002 c -0.0011,-0.0039 -0.0011,-0.0084 0,-0.01172 6.54e-4,-0.0019 0.003,-0.0025 0.0039,-0.0039 v -0.002 c -0.0039,-0.0085 -0.0039,-0.0097 0.002,-0.01172 0.0013,-4.5e-4 0.002,-0.0014 0.0039,-0.002 v -0.002 c 0.0015,-0.0075 0.0065,-0.01468 0.0098,-0.02148 0.0019,-0.0012 0.0039,-0.0011 0.0059,-0.002 l 0.002,-0.002 c 0.0013,-0.0026 0.0025,-0.0052 0.0039,-0.0078 2.8e-5,-0.0051 0.0013,-0.01282 0.0059,-0.02344 7.72e-4,-0.0018 0.0027,-0.0017 0.0059,-0.002 0.0033,-2.14e-4 0.0074,-5.14e-4 0.01172,0 0.0021,-8.12e-4 0.0032,-0.0038 0.0059,-0.0039 0.0033,-1.65e-4 0.0073,-0.001 0.01172,0 0.0037,8e-4 0.0066,0.004 0.0098,0.0059 0.0018,0.0015 0.0023,0.0042 0.0039,0.0059 0.01334,0.0045 0.02603,0.01106 0.0332,0.02344 0.0025,0.0045 0.0056,0.0085 0.0059,0.01367 9.3e-5,0.002 -0.0016,0.0039 -0.002,0.0059 0.02286,0.0027 0.0354,0.0079 0.01367,0.03906 -4.13e-4,6e-4 -0.0017,0.0015 -0.0039,0.002 l 0.002,0.002 c 10e-5,0.0023 -1.41e-4,0.0054 0,0.0078 v 0.002 c 0.0028,0.0086 0.0077,0.01636 0.0098,0.02539 5.63e-4,0.0027 -4.64e-4,0.0052 0,0.0078 0.007,0.0037 0.01805,0.0089 0.01953,0.01172 0.004,0.0076 0.0057,0.01709 0.0078,0.02539 0.0057,0.0028 0.01105,0.0065 0.01172,0.01172 4.07e-4,0.0032 -4.9e-5,0.0052 0,0.0078 0.03489,0.01359 0.06878,0.02858 0.107422,0.03125 0.09175,0.02063 0.192893,-0.0281 0.283203,-0.0332 0.247761,-0.03963 0.46589,-0.04758 0.675781,0.115234 0.07513,0.0654 0.139219,0.142035 0.208985,0.212891 0.23887,0.01026 0.47784,0.02518 0.716796,0.04492 0.433906,0.09956 0.733699,0.140708 1.029297,0.242187 0.104986,-0.02086 0.210598,-0.04545 0.306641,-0.03516 0.02336,-0.0062 0.04598,-0.01135 0.06641,-0.01172 0.04368,-7.81e-4 0.07906,0.01341 0.103516,0.05078 0.02911,0.04448 0.04506,0.101901 0.05078,0.16211 2.61e-4,0.0027 0.0017,0.0051 0.002,0.0078 0.0066,0.02891 0.0053,0.05966 0.0059,0.08984 0.05306,0.03423 0.105024,0.06785 0.162109,0.109375 0.86611,0.630068 1.090224,1.417801 0.671875,2.355469 0.05678,0.05895 0.108855,0.121298 0.164062,0.18164 0.838295,0.0031 1.409308,0.146695 0.865235,1.195313 0.01315,0.02856 0.02882,0.0561 0.03906,0.08594 0.01792,0.0522 0.03029,0.102022 0.04297,0.152344 0.120772,-0.03958 0.242081,-0.07959 0.371094,-0.115234 0.174356,-0.488478 0.745288,-0.916652 1.732422,-0.966797 1.939927,-0.09855 0.945131,-0.04811 2.988281,-0.154297 0.08478,-0.0045 1.643544,-0.08716 2.513672,-0.132813 0.259641,-0.02491 0.497937,-0.04653 0.835937,-0.08008 0.05497,-0.0021 0.112228,-0.0084 0.167969,-0.01172 0.173009,-0.04691 0.352205,-0.109485 0.511719,-0.126954 0.121593,-0.01332 0.2312,0.0011 0.316406,0.06641 0.915112,-0.06097 1.59622,0.03371 0.984375,1.316406 1.147947,1.679841 0.232317,1.157624 -0.548828,1.183594 -0.05406,0.0018 -0.10807,0.0056 -0.162109,0.0078 -0.01083,0.0159 -0.01825,0.02883 -0.0293,0.04492 -0.235434,0.343107 -0.830513,0.03944 -1.246094,0.06055 -0.03395,0.0017 -0.451541,0.02298 -0.683594,0.03516 -1.153623,0.109055 -1.626447,0.156766 -3.30664,0.439453 -0.394601,0.06639 -0.788759,0.140756 -1.181641,0.216797 2.207579,0.194823 5.684195,0.294504 7.53125,0.34961 1.594431,0.04755 3.190819,0.09199 4.787109,0.111328 -5.5e-4,-0.02219 5.93e-4,-0.0282 0,-0.05078 -0.0035,-0.13466 0.267242,-0.02259 0.400391,-0.04297 0.63155,-0.09666 1.262172,-0.204689 1.892578,-0.308594 1.175102,-0.525067 2.35535,-1.038111 3.466797,-1.69336 0.204319,-0.120455 0.396386,-0.205978 0.578125,-0.265624 v -28.10148 z m 1.447265,29.056641 c -0.07475,0.0081 -0.114921,0.303876 -0.0625,0.410156 0.07754,0.157206 0.247266,0.245182 0.388672,0.355469 0.0395,-0.01305 0.07763,-0.02642 0.121094,-0.03711 -0.110309,-0.258296 -0.219121,-0.5177 -0.414063,-0.71289 -0.01196,-0.01198 -0.02252,-0.01676 -0.0332,-0.01563 z m 22.753907,0.04492 c -3.2e-4,0.0027 -0.0016,0.0051 -0.002,0.0078 0.008,0.02017 0.0085,0.0076 0.0098,-0.0059 -0.0026,-7.79e-4 -0.0052,-0.0012 -0.0078,-0.002 z m -22.996094,0.845703 c -0.39879,0.0077 -0.783116,0.03513 -1.205078,0.0625 v 0.126953 c 0.04754,-0.0012 0.09508,-0.0025 0.142578,-0.0039 -0.0053,-0.133663 0.0424,-0.110487 0.115234,-0.0039 0.352652,-0.01141 0.705635,-0.0228 1.058594,-0.03516 0.04913,-0.05218 0.108255,-0.101936 0.179688,-0.146484 -0.09766,-7.18e-4 -0.197141,-0.0018 -0.291016,0 z" />
  </g>
  <g
     id="layer3">
    <rect
       style="fill:#b5835a;stroke:none;stroke-width:0.667965"
       id="rect8-5"
       width="46.000118"
       height="46.000118"
       x="99.843521"
       y="40.147549"
       transform="matrix(0.90498397,0.42544566,-0.90498397,0.42544566,5.3033008,14.849242)" />
    <rect
       style="fill:#986a44;stroke:none;stroke-width:0.848864"
       id="rect9"
       width="46.050919"
       height="17.613945"
       x="26.13859"
       y="26.629351"
       transform="rotate(25.152691,-30.628728,19.310471)" />
    <path
       d="M 54.030038,54.788193 61.540396,70.720246 103.19548,51.08544 95.683621,35.15214 Z"
       style="baseline-shift:baseline;display:inline;overflow:visible;vector-effect:none;fill:#986a44;enable-background:accumulate;stop-color:#000000;stop-opacity:1"
       id="path9"
       transform="translate(5.3033008,14.849242)" />
  </g>
  <g
     id="layer6">
    <circle
       style="fill:#000000;stroke:none"
       id="path47"
       cx="51.700634"
       cy="50.377411"
       r="6.7396116"
       transform="translate(2,2)" />
    <circle
       style="fill:#000000;stroke:none"
       id="path47-6"
       cx="64.490059"
       cy="50.36277"
       r="6.7396116"
       transform="translate(2,2)" />
    <rect
       style="fill:#99c1f1;stroke:none;stroke-width:1.05898"
       id="rect50"
       width="29.875261"
       height="8.5741253"
       x="46.061264"
       y="43.931343"
       transform="matrix(1,0,-0.01030873,0.99994686,0,0)" />
    <circle
       style="fill:#99c1f1;stroke:none;stroke-width:0.946172"
       id="path48"
       cx="51.700634"
       cy="50.377411"
       r="6.0423083"
       transform="translate(2,2)" />
    <circle
       style="fill:#99c1f1;stroke:none;stroke-width:0.946172"
       id="path48-6"
       cx="64.525902"
       cy="50.356266"
       r="6.0423083"
       transform="translate(2,2)" />
    <rect
       style="fill:#000000;stroke:none;stroke-width:0.771321"
       id="rect49"
       width="0.734375"
       height="6.265625"
       x="59.742188"
       y="47" />
  </g>
  <g
     id="layer4"
     transform="translate(2,2)"
     style="fill:#000000">
    <circle
       style="fill:#000000;stroke:none"
       id="path20"
       cx="45.078056"
       cy="37.034718"
       r="3.4471455" />
    <circle
       style="fill:#000000;stroke:none"
       id="path20-7"
       cx="71.093292"
       cy="37.02589"
       r="3.4471455" />
    <path
       id="rect20"
       style="fill:#000000;stroke:none"
       transform="rotate(45)"
       d="m 66.7553,-8.4908056 v 0.027621 h 6.938485 v -6.7727564 c -0.850297,0.843222 -1.700016,1.685837 -2.557738,2.52183 -1.267881,1.234605 -1.243286,1.214708 -2.517687,2.440347 -4.019126,3.8653273 1.253692,-1.210661 -1.86306,1.7829584 z" />
  </g>
  <g
     id="layer8">
    <rect
       style="fill:#000000;stroke:none;stroke-width:0.771321"
       id="rect49-5"
       width="0.734375"
       height="6.265625"
       x="-24.896078"
       y="52.101978"
       transform="rotate(-66.734594)" />
    <rect
       style="fill:#000000;stroke:none;stroke-width:0.771321"
       id="rect49-5-8"
       width="0.734375"
       height="6.265625"
       x="-48.31654"
       y="37.492878"
       transform="rotate(-90.056598)" />
    <g
       id="layer8-3"
       transform="matrix(-1,0,0,1,120.12832,-0.10067578)">
      <rect
         style="fill:#000000;stroke:none;stroke-width:0.771321"
         id="rect49-5-1"
         width="0.734375"
         height="6.265625"
         x="-24.896078"
         y="52.101978"
         transform="rotate(-66.734594)" />
      <rect
         style="fill:#000000;stroke:none;stroke-width:0.771321"
         id="rect49-5-8-9"
         width="0.734375"
         height="6.265625"
         x="-48.31654"
         y="37.492878"
         transform="rotate(-90.056598)" />
    </g>
  </g>
  <text
     xml:space="preserve"
     style="font-size:20.5628px;text-align:start;writing-mode:lr-tb;direction:ltr;text-anchor:start;display:inline;fill:#63452c;stroke:none;stroke-width:1.71357"
     x="19.418018"
     y="85.170341"
     id="text54"
     transform="matrix(1.0099449,0.44674456,-0.00382732,0.98846002,0,0)"><tspan
       id="tspan54"
       x="19.418018"
       y="85.170341"
       style="fill:#63452c;stroke-width:1.71357">PET</tspan></text>
  <text
     xml:space="preserve"
     style="font-size:18.7958px;text-align:start;writing-mode:lr-tb;direction:ltr;text-anchor:start;display:inline;fill:#63452c;stroke:none;stroke-width:1.56632"
     x="69.583847"
     y="127.74963"
     id="text55"
     transform="matrix(0.91644199,-0.42621597,-0.0060202,1.0939764,0,0)"><tspan
       id="tspan55"
       x="69.583847"
       y="127.74963"
       style="fill:#63452c;stroke-width:1.56632">BOX</tspan></text>
</svg>
